# xmcd
# 
# Track frame offsets:
#     150
#     17919
#     38152
#     60561
#     78330
# 
# Disc length: 1134
# 
# Revision: 0
# Processed by: cddbd v1.5.2PL0 Copyright (c) Steve Scherf et al.
# Submitted via: fre:ac v1.0.17
# 
DISCID=34046c05
DTITLE=GARNiDELiA - BLAZING
DYEAR=2014
DGENRE=JPop
TTITLE0=BLAZING
TTITLE1=人魚姫
TTITLE2=further
TTITLE3=BLAZING (Instrumental)
TTITLE4=BLAZING (TV Size Ver.)
EXTD=
EXTT0=
EXTT1=
EXTT2=
EXTT3=
EXTT4=
PLAYORDER=
